<?xml version="1.0" standalone="no"?>
<!DOCTYPE svg PUBLIC "-//W3C//DTD SVG 20010904//EN"
 "http://www.w3.org/TR/2001/REC-SVG-20010904/DTD/svg10.dtd">
<svg version="1.0" xmlns="http://www.w3.org/2000/svg"
 width="400.000000pt" height="400.000000pt" viewBox="0 0 400.000000 400.000000"
 preserveAspectRatio="xMidYMid meet">
<metadata>
Created by potrace 1.11, written by Peter Selinger 2001-2013
</metadata>
<g transform="translate(0.000000,400.000000) scale(0.100000,-0.100000)"
fill="#000000" stroke="none">
<path d="M1940 3987 c-19 -7 -78 -38 -130 -69 -52 -30 -203 -117 -335 -193
-132 -76 -283 -163 -335 -193 -125 -72 -367 -211 -620 -357 -113 -64 -213
-125 -224 -134 -49 -43 -47 -6 -47 -1036 1 -939 1 -966 20 -1003 11 -22 30
-46 43 -54 21 -14 364 -212 953 -551 116 -66 310 -178 432 -249 122 -70 240
-132 262 -137 57 -12 98 -1 199 57 84 48 360 207 992 570 168 96 352 202 410
235 112 63 153 96 176 139 21 40 21 1936 0 1976 -25 48 -67 77 -346 237 -151
87 -401 231 -555 320 -580 334 -701 404 -742 425 -54 28 -108 34 -153 17z"/>
</g>
</svg>
